<?xml version="1.0" encoding="UTF-8"?>
<svg id="Layer_1" data-name="Layer 1" xmlns="http://www.w3.org/2000/svg" viewBox="51 51 513 132" fill="white">
  <defs>
    <style>
      .cls-1 {
        fill: #8c1e14;
      }

      .cls-1, .cls-2 {
        fill-rule: evenodd;
      }
    </style>
  </defs>
  <path d="M184.76,57.79c-.56-.97-1.32-1.73-2.29-2.28-.97-.55-2.01-.83-3.11-.83s-2.16.28-3.13.84c-.97.56-1.73,1.32-2.28,2.29-.55.97-.83,2.01-.83,3.11s.27,2.12.81,3.08c.54.95,1.29,1.72,2.26,2.29.97.57,2.03.86,3.17.86s2.21-.29,3.18-.86c.97-.58,1.72-1.34,2.26-2.3.54-.96.8-1.98.8-3.07s-.28-2.16-.84-3.13ZM183.88,63.52c-.46.8-1.1,1.44-1.9,1.91-.81.47-1.68.71-2.62.71s-1.8-.24-2.61-.7c-.81-.46-1.45-1.1-1.91-1.9-.47-.8-.7-1.68-.7-2.62s.24-1.82.71-2.63c.48-.81,1.11-1.44,1.92-1.9.8-.46,1.66-.69,2.59-.69s1.79.23,2.6.7c.81.46,1.45,1.1,1.92,1.91.47.81.7,1.68.7,2.61s-.23,1.8-.69,2.6Z"/>
  <path class="cls-2" d="M66.95,107.89c0,.26-.08.49-.24.69-.16.19-.42.36-.8.49-.38.13-.88.23-1.5.3-.63.07-1.42.1-2.39.1s-1.77-.03-2.39-.1c-.63-.07-1.13-.16-1.51-.3-.37-.13-.65-.29-.8-.49-.16-.19-.24-.43-.24-.68v-34.88c0-.26.08-.49.24-.68.16-.2.43-.36.8-.51.38-.14.88-.25,1.51-.33.62-.08,1.42-.12,2.39-.12.97,0,1.76.04,2.39.12.62.08,1.13.2,1.5.33.38.15.64.31.8.51.16.2.24.42.24.68v34.88h0ZM67.69,61.11c0,1.98-.4,3.36-1.21,4.12-.81.76-2.31,1.13-4.5,1.13s-3.72-.36-4.49-1.09c-.76-.73-1.15-2.05-1.15-3.96s.4-3.36,1.19-4.14c.8-.76,2.3-1.15,4.52-1.15,2.2,0,3.69.37,4.47,1.12.78.74,1.17,2.07,1.17,3.97Z"/>
  <path class="cls-2" d="M86.66,107.89c0,.26-.07.49-.24.69-.16.19-.42.36-.8.49-.38.13-.89.23-1.51.3s-1.43.1-2.39.1-1.76-.03-2.39-.1c-.63-.07-1.12-.16-1.51-.3-.38-.13-.65-.29-.81-.49-.15-.19-.23-.43-.23-.68v-34.88c0-.26.08-.49.23-.68.16-.2.43-.36.81-.51.38-.14.88-.25,1.51-.33.63-.08,1.43-.12,2.39-.12.96,0,1.77.04,2.39.12.62.08,1.13.2,1.51.33.38.15.65.31.8.51.16.2.24.42.24.68v34.88h0ZM87.41,61.11c0,1.98-.41,3.36-1.22,4.12-.81.76-2.32,1.13-4.51,1.13s-3.72-.36-4.49-1.09c-.77-.73-1.16-2.05-1.16-3.96s.4-3.36,1.19-4.14c.8-.76,2.3-1.15,4.53-1.15,2.19,0,3.68.37,4.47,1.12.78.74,1.17,2.07,1.17,3.97Z"/>
  <path class="cls-2" d="M129.89,107.89c0,.26-.08.49-.24.69-.16.19-.42.36-.78.49-.37.13-.87.23-1.51.3-.64.07-1.43.1-2.37.1s-1.77-.03-2.41-.1c-.64-.07-1.14-.16-1.5-.3-.37-.13-.63-.29-.79-.49-.16-.19-.24-.43-.24-.68v-19.95c0-1.7-.13-3.03-.37-4-.25-.97-.61-1.8-1.08-2.49-.47-.69-1.08-1.23-1.82-1.61-.75-.38-1.61-.57-2.61-.57-1.25,0-2.52.46-3.8,1.37-1.28.91-2.61,2.25-3.99,4v23.24c0,.26-.08.49-.24.69-.16.19-.43.36-.8.49-.38.13-.89.23-1.51.3-.63.07-1.43.1-2.39.1s-1.76-.03-2.39-.1c-.63-.07-1.13-.16-1.51-.3-.38-.13-.65-.29-.8-.49-.15-.19-.23-.43-.23-.68v-51.53c0-.25.08-.49.23-.7.16-.21.43-.39.8-.53.38-.14.88-.25,1.51-.33.63-.08,1.42-.12,2.39-.12s1.76.04,2.39.12c.62.08,1.13.19,1.51.33.37.14.64.32.8.53.16.21.24.45.24.7v19.32c1.69-1.67,3.43-2.92,5.19-3.74,1.76-.83,3.59-1.23,5.5-1.23,2.37,0,4.38.39,6.02,1.17,1.63.78,2.95,1.86,3.96,3.21,1,1.36,1.73,2.95,2.18,4.76.44,1.81.67,4.01.67,6.6v21.43Z"/>
  <path class="cls-2" d="M164.17,98.02c0,1.98-.37,3.74-1.12,5.25-.74,1.51-1.79,2.78-3.15,3.8-1.36,1.02-2.97,1.78-4.83,2.3-1.85.51-3.86.76-6.03.76-1.31,0-2.55-.1-3.74-.3-1.19-.19-2.25-.44-3.19-.74-.94-.3-1.73-.61-2.36-.92-.62-.31-1.09-.61-1.37-.88-.29-.28-.51-.71-.66-1.3-.16-.59-.24-1.46-.24-2.61,0-.76.03-1.36.08-1.82.05-.46.13-.82.24-1.1.1-.28.24-.46.39-.55.16-.09.35-.14.58-.14.29,0,.72.16,1.27.49.56.33,1.26.69,2.1,1.08.84.39,1.81.76,2.92,1.09,1.11.34,2.38.51,3.79.51.89,0,1.68-.09,2.36-.28.7-.18,1.3-.45,1.8-.78.51-.34.9-.78,1.16-1.29.26-.52.39-1.12.39-1.8,0-.78-.24-1.46-.72-2.02-.49-.56-1.13-1.05-1.92-1.47-.79-.42-1.7-.81-2.7-1.18-1.01-.36-2.04-.77-3.1-1.21-1.06-.45-2.1-.95-3.1-1.53-1.01-.58-1.91-1.28-2.7-2.12-.8-.84-1.44-1.84-1.92-3.02-.48-1.18-.73-2.58-.73-4.23s.33-3.2.98-4.6c.66-1.4,1.59-2.59,2.82-3.59,1.23-.99,2.72-1.76,4.49-2.31,1.76-.55,3.74-.82,5.93-.82,1.1,0,2.16.08,3.19.23,1.03.16,1.97.36,2.8.59.84.24,1.54.49,2.11.76.57.28.99.51,1.24.71.25.2.42.39.53.59.1.19.18.43.24.71.05.28.09.61.14,1.01.04.41.05.91.05,1.51,0,.71-.02,1.28-.05,1.72-.04.44-.11.79-.2,1.06-.09.26-.21.44-.37.53-.16.09-.34.14-.55.14-.24,0-.61-.14-1.1-.41-.49-.27-1.12-.57-1.86-.88-.74-.31-1.6-.61-2.58-.88-.98-.27-2.1-.41-3.35-.41-.89,0-1.66.09-2.31.28-.66.18-1.19.44-1.61.78-.42.34-.73.74-.94,1.19-.21.46-.31.95-.31,1.47,0,.81.25,1.49.74,2.04.5.54,1.15,1.03,1.96,1.45.8.42,1.72.81,2.76,1.18,1.03.37,2.07.76,3.14,1.2,1.05.43,2.1.93,3.13,1.51,1.03.57,1.95,1.28,2.77,2.12.81.83,1.46,1.83,1.95,3,.49,1.16.74,2.54.74,4.13Z"/>
  <path class="cls-2" d="M164.18,119.94H57.07c-1.23,0-2.24-1-2.24-2.24s1.01-2.23,2.24-2.23h107.11c1.24,0,2.24,1,2.24,2.23,0,1.23-1,2.24-2.24,2.24h0Z"/>
  <path d="M180.62,61.38c.85-.34,1.27-.99,1.27-1.94,0-.76-.23-1.33-.67-1.7-.45-.38-1.15-.56-2.12-.56h-2.17v7.5h1.57v-2.88h.75l1.6,2.88h1.75l-1.97-3.3ZM180,60.3c-.21.19-.52.29-.93.29h-.57v-2.19h.56c.44,0,.76.08.96.23.2.16.3.44.3.83,0,.36-.1.63-.31.83Z"/>
  <g>
    <path class="cls-1" d="M175.35,172.54h9.52c1.23,0,2.24,1,2.24,2.24s-1.01,2.23-2.24,2.23h-9.52c-1.24,0-2.24-1-2.24-2.23,0-1.23,1-2.24,2.24-2.24h0Z"/>
    <path class="cls-1" d="M196.04,172.54h9.52c1.23,0,2.24,1,2.24,2.24s-1.01,2.23-2.24,2.23h-9.52c-1.24,0-2.24-1-2.24-2.23,0-1.23,1-2.24,2.24-2.24h0Z"/>
    <path class="cls-1" d="M216.74,172.54h9.52c1.23,0,2.24,1,2.24,2.24s-1.01,2.23-2.24,2.23h-9.52c-1.24,0-2.24-1-2.24-2.23,0-1.23,1-2.24,2.24-2.24h0Z"/>
    <path class="cls-1" d="M237.44,172.54h9.52c1.23,0,2.24,1,2.24,2.24s-1.01,2.23-2.24,2.23h-9.52c-1.24,0-2.24-1-2.24-2.23,0-1.23,1-2.24,2.24-2.24h0Z"/>
    <path class="cls-1" d="M258.13,172.54h9.52c1.23,0,2.24,1,2.24,2.24s-1.01,2.23-2.24,2.23h-9.52c-1.24,0-2.24-1-2.24-2.23,0-1.23,1-2.24,2.24-2.24h0Z"/>
    <path class="cls-1" d="M278.83,172.54h9.52c1.23,0,2.24,1,2.24,2.24s-1.01,2.23-2.24,2.23h-9.52c-1.24,0-2.24-1-2.24-2.23,0-1.23,1-2.24,2.24-2.24h0Z"/>
    <path class="cls-1" d="M299.52,172.54h9.52c1.23,0,2.24,1,2.24,2.24s-1.01,2.23-2.24,2.23h-9.52c-1.24,0-2.24-1-2.24-2.23,0-1.23,1-2.24,2.24-2.24h0Z"/>
    <path class="cls-1" d="M320.22,172.54h9.52c1.23,0,2.24,1,2.24,2.24,0,1.24-1.01,2.23-2.24,2.23h-9.52c-1.24,0-2.24-1-2.24-2.23,0-1.23,1-2.24,2.24-2.24h0Z"/>
    <path class="cls-1" d="M340.91,172.54h9.52c1.23,0,2.24,1,2.24,2.24,0,1.24-1.01,2.23-2.24,2.23h-9.52c-1.24,0-2.24-1-2.24-2.23,0-1.23,1-2.24,2.24-2.24h0Z"/>
    <path class="cls-1" d="M361.61,172.54h9.52c1.23,0,2.24,1,2.24,2.24s-1.01,2.23-2.24,2.23h-9.52c-1.24,0-2.24-1-2.24-2.23,0-1.23,1-2.24,2.24-2.24h0Z"/>
    <path class="cls-1" d="M382.3,172.54h9.52c1.23,0,2.24,1,2.24,2.24s-1.01,2.23-2.24,2.23h-9.52c-1.24,0-2.24-1-2.24-2.23,0-1.23,1-2.24,2.24-2.24h0Z"/>
    <path class="cls-1" d="M403,172.54h9.52c1.23,0,2.24,1,2.24,2.24s-1.01,2.23-2.24,2.23h-9.52c-1.24,0-2.24-1-2.24-2.23,0-1.23,1-2.24,2.24-2.24h0Z"/>
    <path class="cls-1" d="M403,172.54h9.52c1.23,0,2.24,1,2.24,2.24s-1.01,2.23-2.24,2.23h-9.52c-1.24,0-2.24-1-2.24-2.23,0-1.23,1-2.24,2.24-2.24h0Z"/>
    <path class="cls-1" d="M423.69,172.54h9.52c1.23,0,2.24,1,2.24,2.24s-1.01,2.23-2.24,2.23h-9.52c-1.24,0-2.24-1-2.24-2.23,0-1.23,1-2.24,2.24-2.24h0Z"/>
    <path class="cls-1" d="M444.39,172.54h9.52c1.23,0,2.24,1,2.24,2.24s-1.01,2.23-2.24,2.23h-9.52c-1.24,0-2.24-1-2.24-2.23,0-1.23,1-2.24,2.24-2.24h0Z"/>
    <path class="cls-1" d="M465.09,172.54h9.52c1.23,0,2.24,1,2.24,2.24s-1.01,2.23-2.24,2.23h-9.52c-1.24,0-2.24-1-2.24-2.23,0-1.23,1-2.24,2.24-2.24h0Z"/>
    <path class="cls-1" d="M485.78,172.54h9.52c1.23,0,2.24,1,2.24,2.24s-1.01,2.23-2.24,2.23h-9.52c-1.24,0-2.24-1-2.24-2.23,0-1.23,1-2.24,2.24-2.24h0Z"/>
    <path class="cls-1" d="M506.48,172.54h9.52c1.23,0,2.24,1,2.24,2.24s-1.01,2.23-2.24,2.23h-9.52c-1.24,0-2.24-1-2.24-2.23,0-1.23,1-2.24,2.24-2.24h0Z"/>
    <path class="cls-1" d="M527.17,172.54h9.52c1.23,0,2.24,1,2.24,2.24s-1.01,2.23-2.24,2.23h-9.52c-1.24,0-2.24-1-2.24-2.23,0-1.23,1-2.24,2.24-2.24h0Z"/>
    <path class="cls-1" d="M547.87,172.54h9.52c1.23,0,2.24,1,2.24,2.24s-1.01,2.23-2.24,2.23h-9.52c-1.24,0-2.24-1-2.24-2.23,0-1.23,1-2.24,2.24-2.24h0Z"/>
  </g>
  <g>
    <path d="M200.83,148.74h-.15c-1.13,2.12-2.65,3.65-4.56,4.59-1.91.94-4.05,1.41-6.41,1.41-2.73,0-5.18-.47-7.35-1.41s-4.04-2.25-5.61-3.92c-1.68-1.81-2.94-3.94-3.79-6.38-.85-2.44-1.28-5.13-1.28-8.07,0-3.28.56-6.28,1.69-8.99,1.13-2.72,2.77-4.98,4.92-6.79,1.54-1.3,3.3-2.31,5.28-3.02,1.98-.72,4.24-1.08,6.76-1.08,2.39,0,4.54.31,6.46.92,1.91.62,3.57,1.47,4.97,2.56,1.4,1.09,2.54,2.4,3.41,3.92.87,1.52,1.48,3.19,1.82,5h-8.71c-.48-1.44-1.33-2.66-2.56-3.67-1.23-1.01-2.94-1.51-5.12-1.51-1.71,0-3.19.33-4.43.97-1.25.65-2.29,1.54-3.13,2.67-.84,1.13-1.46,2.47-1.87,4.02-.41,1.56-.61,3.22-.61,5s.24,3.54.72,5.07c.48,1.54,1.15,2.87,2.02,4,.87,1.13,1.93,2.01,3.18,2.64,1.25.63,2.66.95,4.23.95,1.33,0,2.54-.21,3.61-.64,1.08-.43,1.98-.98,2.72-1.67.73-.68,1.31-1.48,1.72-2.38.41-.91.61-1.84.61-2.79v-.15h-7.69v-6.51h15.94v20.4h-6.05l-.72-5.12Z"/>
    <path d="M225.89,154.68c-2.22,0-4.22-.37-6-1.1s-3.29-1.75-4.54-3.05c-1.25-1.3-2.2-2.82-2.87-4.56s-1-3.64-1-5.69.34-3.95,1.03-5.71c.68-1.76,1.64-3.29,2.87-4.59,1.23-1.3,2.7-2.31,4.41-3.05,1.71-.73,3.6-1.1,5.69-1.1,1.95,0,3.7.31,5.25.92s2.93,1.47,4.13,2.56c1.54,1.5,2.66,3.37,3.38,5.59.72,2.22,1.06,4.68,1.02,7.38h-19.88c.27,2.05.96,3.66,2.05,4.82,1.09,1.16,2.61,1.74,4.56,1.74,1.26,0,2.3-.23,3.1-.69.8-.46,1.43-1.12,1.87-1.97h7.79c-.34,1.2-.88,2.32-1.62,3.36-.73,1.04-1.64,1.95-2.71,2.72-1.08.77-2.33,1.37-3.77,1.79s-3.02.64-4.77.64ZM225.48,131.52c-1.85,0-3.25.55-4.2,1.64-.96,1.09-1.57,2.58-1.84,4.46h11.63c-.14-1.91-.7-3.41-1.69-4.48-.99-1.08-2.29-1.61-3.89-1.61Z"/>
    <path d="M256.49,154.73c-2.19,0-4.17-.37-5.95-1.1-1.78-.73-3.3-1.75-4.56-3.05-1.27-1.3-2.24-2.83-2.92-4.59-.68-1.76-1.03-3.66-1.03-5.71s.34-3.95,1.03-5.71c.68-1.76,1.66-3.29,2.92-4.59,1.26-1.3,2.78-2.31,4.56-3.05,1.78-.73,3.76-1.1,5.95-1.1s4.12.37,5.89,1.1c1.78.74,3.29,1.75,4.54,3.05,1.25,1.3,2.21,2.83,2.89,4.59.68,1.76,1.03,3.67,1.03,5.71s-.34,3.96-1.03,5.71c-.68,1.76-1.65,3.29-2.89,4.59-1.25,1.3-2.76,2.32-4.54,3.05s-3.74,1.1-5.89,1.1ZM256.44,148.89c2.02,0,3.56-.79,4.64-2.38,1.08-1.59,1.61-3.66,1.61-6.23s-.54-4.7-1.61-6.3c-1.08-1.61-2.62-2.41-4.64-2.41s-3.61.8-4.66,2.41c-1.06,1.61-1.59,3.71-1.59,6.3s.53,4.64,1.59,6.23c1.06,1.59,2.61,2.38,4.66,2.38Z"/>
    <path d="M286.21,154.73c-1.98,0-3.76-.22-5.33-.67-1.57-.44-2.91-1.08-4.02-1.9s-1.98-1.8-2.61-2.95c-.63-1.14-1-2.4-1.1-3.77h7.58c.24,1.3.83,2.29,1.77,2.97.94.68,2.2,1.03,3.77,1.03,1.44,0,2.54-.27,3.33-.82.79-.55,1.18-1.31,1.18-2.31,0-.61-.19-1.11-.56-1.49-.38-.38-.89-.68-1.54-.92-.65-.24-1.39-.44-2.23-.59-.84-.15-1.73-.32-2.69-.49-1.23-.24-2.43-.51-3.59-.82-1.16-.31-2.2-.77-3.13-1.38-.92-.62-1.67-1.42-2.23-2.41s-.84-2.29-.84-3.9c0-1.4.3-2.63.9-3.69.6-1.06,1.41-1.95,2.43-2.67,1.03-.72,2.24-1.26,3.64-1.62,1.4-.36,2.9-.54,4.51-.54,3.79,0,6.66.74,8.61,2.23,1.95,1.49,3.11,3.43,3.48,5.82h-7.48c-.51-1.95-2.05-2.92-4.61-2.92-1.23,0-2.21.24-2.95.72-.74.48-1.1,1.16-1.1,2.05,0,.51.17.93.51,1.26.34.33.82.59,1.43.79.62.2,1.33.38,2.15.51.82.14,1.69.29,2.61.46,1.23.21,2.46.47,3.69.79,1.23.33,2.34.81,3.33,1.46.99.65,1.8,1.51,2.43,2.59s.95,2.47.95,4.18c0,1.47-.31,2.77-.92,3.9-.61,1.13-1.47,2.07-2.56,2.82-1.09.75-2.39,1.32-3.89,1.69-1.5.38-3.14.56-4.92.56Z"/>
    <path d="M302.51,126.6h7.74v3.89h.15c1.84-3.11,4.61-4.66,8.3-4.66,1.81,0,3.44.36,4.89,1.08,1.45.72,2.68,1.72,3.69,3s1.79,2.8,2.33,4.56c.55,1.76.82,3.68.82,5.77,0,2.22-.28,4.23-.85,6.02-.56,1.79-1.37,3.31-2.41,4.56-1.04,1.25-2.31,2.21-3.79,2.9-1.49.68-3.13,1.02-4.95,1.02s-3.41-.38-4.79-1.13c-1.38-.75-2.47-1.79-3.25-3.13h-.1c.07.51.13,1.26.18,2.25.05.99.08,2.22.08,3.69v6.51h-8.05v-36.34ZM316.55,148.48c1.84,0,3.26-.72,4.25-2.15.99-1.43,1.49-3.38,1.49-5.84s-.48-4.45-1.43-5.97c-.96-1.52-2.43-2.28-4.41-2.28-1.02,0-1.92.21-2.69.64-.77.43-1.41,1.02-1.92,1.77-.51.75-.9,1.62-1.15,2.61-.26.99-.38,2.07-.38,3.23,0,2.36.53,4.28,1.59,5.77,1.06,1.49,2.61,2.23,4.66,2.23Z"/>
    <path d="M351.97,153.86c-.21-.31-.39-.74-.56-1.31-.17-.56-.29-1.24-.36-2.02h-.1c-.89,1.26-1.96,2.25-3.2,2.97-1.25.72-2.93,1.08-5.05,1.08-1.33,0-2.57-.18-3.72-.54-1.15-.36-2.14-.88-2.97-1.56-.84-.68-1.49-1.55-1.95-2.59-.46-1.04-.69-2.23-.69-3.56,0-1.5.28-2.75.85-3.74.56-.99,1.32-1.79,2.28-2.41.96-.62,2.08-1.08,3.38-1.41,1.3-.32,2.7-.57,4.2-.74,2.43-.34,4.18-.75,5.25-1.23,1.08-.48,1.61-1.23,1.61-2.25s-.33-1.79-.97-2.38c-.65-.6-1.67-.9-3.08-.9-1.54,0-2.69.33-3.46.97-.77.65-1.2,1.52-1.31,2.61h-7.43c.03-1.16.31-2.29.82-3.38.51-1.09,1.26-2.06,2.26-2.9.99-.84,2.24-1.5,3.74-2,1.5-.49,3.26-.74,5.28-.74,1.74,0,3.25.13,4.51.38s2.38.67,3.33,1.26c1.43.82,2.49,1.92,3.15,3.31.67,1.38,1,3,1,4.84v13.99c0,2.08.34,3.35,1.03,3.79v.46h-7.84ZM345.2,149.3c1.81,0,3.25-.49,4.33-1.49,1.08-.99,1.61-2.24,1.61-3.74v-3.54c-.58.38-1.29.67-2.13.9s-1.7.44-2.59.64c-1.78.38-3.09.84-3.95,1.38-.85.55-1.28,1.42-1.28,2.61s.39,2.03,1.18,2.51,1.72.72,2.82.72Z"/>
    <path d="M362.37,126.6h4.1v-8.71h7.89v8.71h5.33v5.12h-5.33v13.53c0,1.03.26,1.72.79,2.08.53.36,1.27.54,2.23.54.27,0,.58,0,.92-.03.34-.02.65-.04.92-.08h.41v6c-.45.07-1.06.15-1.85.26-.79.1-1.72.15-2.82.15-1.26,0-2.42-.11-3.46-.33-1.04-.22-1.94-.62-2.69-1.18-.75-.56-1.33-1.3-1.74-2.2-.41-.91-.62-2.06-.62-3.46v-15.27h-4.1v-5.12Z"/>
    <path d="M383.84,115.73h8.15v7.02h-8.15v-7.02ZM383.89,126.6h8.05v27.26h-8.05v-27.26Z"/>
    <path d="M414.75,153.86c-.21-.31-.39-.74-.56-1.31-.17-.56-.29-1.24-.36-2.02h-.1c-.89,1.26-1.96,2.25-3.2,2.97-1.25.72-2.93,1.08-5.05,1.08-1.33,0-2.57-.18-3.71-.54-1.15-.36-2.14-.88-2.97-1.56-.84-.68-1.49-1.55-1.95-2.59-.46-1.04-.69-2.23-.69-3.56,0-1.5.28-2.75.85-3.74.56-.99,1.32-1.79,2.28-2.41s2.08-1.08,3.38-1.41c1.3-.32,2.7-.57,4.2-.74,2.43-.34,4.18-.75,5.25-1.23,1.08-.48,1.62-1.23,1.62-2.25s-.33-1.79-.97-2.38-1.67-.9-3.07-.9c-1.54,0-2.69.33-3.46.97-.77.65-1.2,1.52-1.31,2.61h-7.43c.03-1.16.31-2.29.82-3.38.51-1.09,1.26-2.06,2.25-2.9.99-.84,2.24-1.5,3.74-2,1.5-.49,3.26-.74,5.28-.74,1.74,0,3.25.13,4.51.38,1.26.26,2.37.67,3.33,1.26,1.44.82,2.49,1.92,3.15,3.31s1,3,1,4.84v13.99c0,2.08.34,3.35,1.02,3.79v.46h-7.84ZM407.98,149.3c1.81,0,3.25-.49,4.33-1.49,1.08-.99,1.62-2.24,1.62-3.74v-3.54c-.58.38-1.29.67-2.13.9-.84.22-1.7.44-2.59.64-1.78.38-3.09.84-3.95,1.38s-1.28,1.42-1.28,2.61.39,2.03,1.18,2.51c.79.48,1.72.72,2.82.72Z"/>
    <path d="M427.1,115.73h8.1v38.13h-8.1v-38.13Z"/>
    <path d="M453.49,115.73h8.71v30.65h17.58v7.48h-26.29v-38.13Z"/>
    <path d="M501.87,153.86c-.21-.31-.39-.74-.56-1.31-.17-.56-.29-1.24-.36-2.02h-.1c-.89,1.26-1.96,2.25-3.2,2.97-1.25.72-2.93,1.08-5.05,1.08-1.33,0-2.57-.18-3.72-.54-1.14-.36-2.14-.88-2.97-1.56-.84-.68-1.49-1.55-1.95-2.59s-.69-2.23-.69-3.56c0-1.5.28-2.75.85-3.74.56-.99,1.32-1.79,2.28-2.41.96-.62,2.08-1.08,3.38-1.41,1.3-.32,2.7-.57,4.2-.74,2.43-.34,4.18-.75,5.25-1.23,1.08-.48,1.61-1.23,1.61-2.25s-.33-1.79-.97-2.38c-.65-.6-1.67-.9-3.08-.9-1.54,0-2.69.33-3.46.97-.77.65-1.21,1.52-1.31,2.61h-7.43c.03-1.16.31-2.29.82-3.38.51-1.09,1.26-2.06,2.25-2.9.99-.84,2.24-1.5,3.74-2,1.5-.49,3.26-.74,5.28-.74,1.74,0,3.25.13,4.51.38,1.26.26,2.37.67,3.33,1.26,1.44.82,2.49,1.92,3.15,3.31s1,3,1,4.84v13.99c0,2.08.34,3.35,1.02,3.79v.46h-7.84ZM495.1,149.3c1.81,0,3.25-.49,4.33-1.49,1.08-.99,1.61-2.24,1.61-3.74v-3.54c-.58.38-1.29.67-2.13.9-.84.22-1.7.44-2.59.64-1.78.38-3.09.84-3.95,1.38-.85.55-1.28,1.42-1.28,2.61s.39,2.03,1.18,2.51c.79.48,1.72.72,2.82.72Z"/>
    <path d="M530.26,154.73c-1.84,0-3.49-.39-4.95-1.18-1.45-.79-2.57-2.02-3.36-3.69h-.1v4h-7.74v-38.13h8.05v8.35c0,1.16-.03,2.3-.08,3.41-.05,1.11-.11,2.08-.18,2.9h.15c.92-1.4,2.03-2.51,3.33-3.33,1.3-.82,2.9-1.23,4.82-1.23,1.78,0,3.38.36,4.82,1.08s2.66,1.72,3.69,3,1.82,2.8,2.38,4.56c.56,1.76.85,3.68.85,5.77,0,2.25-.27,4.28-.82,6.07s-1.33,3.31-2.36,4.56-2.25,2.2-3.69,2.87c-1.44.67-3.04,1-4.82,1ZM528.11,148.28c1.88,0,3.29-.73,4.23-2.2.94-1.47,1.41-3.43,1.41-5.89s-.47-4.45-1.41-5.97c-.94-1.52-2.37-2.28-4.28-2.28-1.06,0-1.97.21-2.74.64-.77.43-1.41,1.01-1.92,1.74-.51.74-.89,1.61-1.13,2.64-.24,1.02-.36,2.12-.36,3.28,0,2.39.55,4.33,1.64,5.82,1.09,1.49,2.61,2.23,4.56,2.23Z"/>
  </g>
</svg>